<svg xmlns="http://www.w3.org/2000/svg" width="1600" height="700" viewBox="0 0 1600 700">
  <defs>
    <linearGradient id="sky" x1="0" x2="0" y1="0" y2="1">
      <stop offset="0%" stop-color="#f1efe9"/>
      <stop offset="100%" stop-color="#cfc9bf"/>
    </linearGradient>
    <linearGradient id="ground" x1="0" x2="0" y1="0" y2="1">
      <stop offset="0%" stop-color="#d8d1c5"/>
      <stop offset="100%" stop-color="#b7afa1"/>
    </linearGradient>
    <filter id="blur"><feGaussianBlur stdDeviation="2"/></filter>
  </defs>
  <rect width="1600" height="700" fill="url(#sky)"/>
  <rect y="430" width="1600" height="270" fill="url(#ground)"/>
  <g opacity="0.25" fill="#6b6a66">
    <path d="M0 430 Q 180 360 380 430 T 760 430 T 1140 430 T 1600 430 L1600 500 L0 500 Z"/>
  </g>
  <g stroke="#6e6a63" stroke-width="2" opacity="0.22">
    <line x1="800" y1="430" x2="800" y2="690"/>
    <line x1="800" y1="430" x2="500" y2="690"/>
    <line x1="800" y1="430" x2="1120" y2="690"/>
  </g>
  <ellipse cx="920" cy="455" rx="140" ry="18" fill="#a5a097" opacity="0.25" filter="url(#blur)"/>
  <g transform="translate(920 355)">
    <circle cx="0" cy="-12" r="10" fill="#2c2f33"/>
    <rect x="-7" y="-2" width="14" height="54" rx="7" fill="#2c2f33"/>
    <line x1="0" y1="50" x2="-20" y2="110" stroke="#2c2f33" stroke-width="10" stroke-linecap="round"/>
    <line x1="0" y1="50" x2="20" y2="110" stroke="#2c2f33" stroke-width="10" stroke-linecap="round"/>
    <line x1="0" y1="12" x2="-22" y2="48" stroke="#2c2f33" stroke-width="8" stroke-linecap="round"/>
    <line x1="0" y1="12" x2="22" y2="48" stroke="#2c2f33" stroke-width="8" stroke-linecap="round"/>
  </g>
  <line x1="920" y1="465" x2="955" y2="630" stroke="#77736d" stroke-width="5" opacity="0.25"/>
  <text x="48" y="664" font-family="Inter, Arial, sans-serif" font-size="16" letter-spacing="0.3em" fill="#66615b" opacity="0.45">ARCHIVE REFERENCE · V01.2024</text>
</svg>