<svg xmlns="http://www.w3.org/2000/svg" width="1200" height="1200" viewBox="0 0 1200 1200">
<defs>
  <linearGradient id="bg" x1="0" y1="0" x2="1" y2="1">
    <stop offset="0%" stop-color="#0f2231"/>
    <stop offset="100%" stop-color="#081118"/>
  </linearGradient>
</defs>
<rect width="1200" height="1200" fill="url(#bg)"/>
<g stroke="#8b6b34" stroke-opacity="0.6" fill="none"><path d="M120 0 V250 Q120 320 160 360 H340" stroke-width="3"/><path d="M120 1200 V950 Q120 880 80 840 H20" stroke-width="2"/><path d="M240 0 V250 Q240 320 280 360 H460" stroke-width="3"/><path d="M240 1200 V950 Q240 880 200 840 H20" stroke-width="2"/><path d="M360 0 V250 Q360 320 400 360 H580" stroke-width="3"/><path d="M360 1200 V950 Q360 880 320 840 H140" stroke-width="2"/><path d="M480 0 V250 Q480 320 520 360 H700" stroke-width="3"/><path d="M480 1200 V950 Q480 880 440 840 H260" stroke-width="2"/><path d="M600 0 V250 Q600 320 640 360 H820" stroke-width="3"/><path d="M600 1200 V950 Q600 880 560 840 H380" stroke-width="2"/><path d="M720 0 V250 Q720 320 760 360 H940" stroke-width="3"/><path d="M720 1200 V950 Q720 880 680 840 H500" stroke-width="2"/><path d="M840 0 V250 Q840 320 880 360 H1060" stroke-width="3"/><path d="M840 1200 V950 Q840 880 800 840 H620" stroke-width="2"/><path d="M960 0 V250 Q960 320 1000 360 H1180" stroke-width="3"/><path d="M960 1200 V950 Q960 880 920 840 H740" stroke-width="2"/><path d="M1080 0 V250 Q1080 320 1120 360 H1180" stroke-width="3"/><path d="M1080 1200 V950 Q1080 880 1040 840 H860" stroke-width="2"/><path d="M0 160 H260 Q330 160 370 200 V380" stroke-width="2"/><path d="M1200 160 H940 Q870 160 830 120 V20" stroke-width="2"/><path d="M0 320 H260 Q330 320 370 360 V540" stroke-width="2"/><path d="M1200 320 H940 Q870 320 830 280 V100" stroke-width="2"/><path d="M0 480 H260 Q330 480 370 520 V700" stroke-width="2"/><path d="M1200 480 H940 Q870 480 830 440 V260" stroke-width="2"/><path d="M0 640 H260 Q330 640 370 680 V860" stroke-width="2"/><path d="M1200 640 H940 Q870 640 830 600 V420" stroke-width="2"/><path d="M0 800 H260 Q330 800 370 840 V1020" stroke-width="2"/><path d="M1200 800 H940 Q870 800 830 760 V580" stroke-width="2"/><path d="M0 960 H260 Q330 960 370 1000 V1180" stroke-width="2"/><path d="M1200 960 H940 Q870 960 830 920 V740" stroke-width="2"/></g>
<circle cx="600" cy="600" r="56" fill="#8b6b34" opacity="0.2"/>
<circle cx="600" cy="600" r="16" fill="#c7a25b"/>
</svg>